<?xml version="1.0" standalone="no"?><!DOCTYPE svg PUBLIC "-//W3C//DTD SVG 1.1//EN" "http://www.w3.org/Graphics/SVG/1.1/DTD/svg11.dtd"><svg t="1722921318885" class="icon" viewBox="0 0 1024 1024" version="1.1" xmlns="http://www.w3.org/2000/svg" p-id="2581" xmlns:xlink="http://www.w3.org/1999/xlink" width="200" height="200"><path d="M182.367076 338.113696m75.500514-10.664661l0 0q75.500513-10.664661 86.165174 64.835852l52.451949 371.333804q10.664661 75.500513-64.835853 86.165174l0 0q-75.500513 10.664661-86.165174-64.835853l-52.451949-371.333803q-10.664661-75.500513 64.835853-86.165174Z" fill="#4384F7" p-id="2582"></path><path d="M168.606795 243.191297m78.084858-11.029707l470.00431-66.389437q78.084859-11.029707 89.114566 67.055152l45.551039 322.478783q11.029707 78.084859-67.055151 89.114566l-470.004311 66.389436q-78.084859 11.029707-89.114565-67.055151l-45.551039-322.478783q-11.029707-78.084859 67.055151-89.114566Z" fill="#6CA4F4" p-id="2583"></path><path d="M518.09 328.88l29.32 42.97c3.65 5.34 9.69 8.55 16.16 8.58l52.01 0.21c16.29 0.06 25.44 18.78 15.48 31.68l-31.8 41.16a19.632 19.632 0 0 0-3.16 18.02l15.88 49.53c4.97 15.52-10 30-25.34 24.51l-48.97-17.53a19.675 19.675 0 0 0-18.12 2.56l-42.2 30.41c-13.22 9.52-31.62-0.24-31.14-16.53l1.54-51.99c0.19-6.47-2.81-12.61-8.03-16.44l-41.96-30.74c-13.14-9.63-9.54-30.15 6.1-34.73l49.92-14.61a19.647 19.647 0 0 0 13.15-12.72l16.27-49.4c5.1-15.48 25.73-18.39 34.91-4.93z" fill="#FFFFFF" p-id="2584"></path></svg>