<?xml version="1.0" standalone="no"?><!DOCTYPE svg PUBLIC "-//W3C//DTD SVG 1.1//EN" "http://www.w3.org/Graphics/SVG/1.1/DTD/svg11.dtd"><svg t="1722921747808" class="icon" viewBox="0 0 1024 1024" version="1.1" xmlns="http://www.w3.org/2000/svg" p-id="3271" xmlns:xlink="http://www.w3.org/1999/xlink" width="200" height="200"><path d="M708.03 591.43m-171.29 0a171.29 171.29 0 1 0 342.58 0 171.29 171.29 0 1 0-342.58 0Z" fill="#4384F7" p-id="3272"></path><path d="M486.67 519.28h220.87v243.44H486.67z" fill="#4384F7" p-id="3273"></path><path d="M537.73 514.36m-248.36 0a248.36 248.36 0 1 0 496.72 0 248.36 248.36 0 1 0-496.72 0Z" fill="#6CA4F4" p-id="3274"></path><path d="M319.79 608.61m-154.12 0a154.12 154.12 0 1 0 308.24 0 154.12 154.12 0 1 0-308.24 0Z" fill="#6CA4F4" p-id="3275"></path><path d="M319.79 661.62h199.27v101.11H319.79z" fill="#6CA4F4" p-id="3276"></path><path d="M516.4 426.12l-68.31 83.08c-14.15 17.21-1.91 43.14 20.38 43.14H605.1c22.29 0 34.53-25.92 20.38-43.14l-68.31-83.08c-10.55-12.83-30.2-12.83-40.75 0z" fill="#FFFFFF" p-id="3277"></path><path d="M502.09 636m0-34.41l0-98.18q0-34.41 34.41-34.41l-0.01 0q34.41 0 34.41 34.41l0 98.18q0 34.41-34.41 34.41l0.01 0q-34.41 0-34.41-34.41Z" fill="#FFFFFF" p-id="3278"></path></svg>