<?xml version="1.0" standalone="no"?><!DOCTYPE svg PUBLIC "-//W3C//DTD SVG 1.1//EN" "http://www.w3.org/Graphics/SVG/1.1/DTD/svg11.dtd"><svg t="1722921718699" class="icon" viewBox="0 0 1024 1024" version="1.1" xmlns="http://www.w3.org/2000/svg" p-id="3101" xmlns:xlink="http://www.w3.org/1999/xlink" width="200" height="200"><path d="M152 601.12l-0.4 199.31c-0.07 33.22 36.05 53.89 64.66 37.01L613.56 603 152 601.12z" fill="#4384F7" p-id="3102"></path><path d="M152.12 224.81m73.81 0l564.05 0q73.81 0 73.81 73.81l0 350.88q0 73.81-73.81 73.81l-564.05 0q-73.81 0-73.81-73.81l0-350.88q0-73.81 73.81-73.81Z" fill="#6CA4F4" p-id="3103"></path><path d="M336 474.06m-50 0a50 50 0 1 0 100 0 50 50 0 1 0-100 0Z" fill="#FFFFFF" p-id="3104"></path><path d="M507.5 474.06m-50 0a50 50 0 1 0 100 0 50 50 0 1 0-100 0Z" fill="#FFFFFF" p-id="3105"></path><path d="M679 474.06m-50 0a50 50 0 1 0 100 0 50 50 0 1 0-100 0Z" fill="#FFFFFF" p-id="3106"></path></svg>